<svg width="20" height="20" viewBox="0 0 20 20" fill="none" xmlns="http://www.w3.org/2000/svg">
<g clip-path="url(#clip0_1661_125540)">
<path d="M14.9497 14.9526C13.5252 16.0385 11.7906 16.64 9.99967 16.6693C4.16634 16.6693 0.833008 10.0026 0.833008 10.0026C1.86958 8.07087 3.30729 6.38313 5.04967 5.05263M8.24967 3.53596C8.82328 3.40169 9.41056 3.33457 9.99967 3.33596C15.833 3.33596 19.1663 10.0026 19.1663 10.0026C18.6605 10.949 18.0572 11.8399 17.3663 12.661M11.7663 11.7693C11.5375 12.0149 11.2615 12.2119 10.9548 12.3486C10.6481 12.4852 10.3171 12.5587 9.98142 12.5646C9.64574 12.5705 9.31231 12.5088 9.00102 12.383C8.68972 12.2573 8.40694 12.0701 8.16955 11.8328C7.93215 11.5954 7.745 11.3126 7.61926 11.0013C7.49353 10.69 7.43178 10.3566 7.4377 10.0209C7.44362 9.68521 7.5171 9.35416 7.65374 9.0475C7.79038 8.74083 7.98738 8.46483 8.23301 8.23596" stroke="#666666" stroke-width="1.5" stroke-linecap="round" stroke-linejoin="round"/>
<path d="M0.833008 0.835938L19.1663 19.1693" stroke="#666666" stroke-width="1.5" stroke-linecap="round" stroke-linejoin="round"/>
</g>
<defs>
<clipPath id="clip0_1661_125540">
<rect width="20" height="20" fill="white"/>
</clipPath>
</defs>
</svg>
